<svg width="535" height="178" xmlns="http://www.w3.org/2000/svg" xmlns:xlink="http://www.w3.org/1999/xlink" overflow="hidden"><defs><clipPath id="clip0"><path d="M373 272 908 272 908 450 373 450Z" fill-rule="evenodd" clip-rule="evenodd"/></clipPath></defs><g clip-path="url(#clip0)" transform="translate(-373 -272)"><rect x="373" y="290" width="534" height="141" fill="#A9D18E"/><text fill="#A9D18E" font-family="Consolas,Consolas_MSFontService,sans-serif" font-weight="400" font-size="80" transform="translate(562.997 371)">V<tspan fill="#FFFFFF" font-size="67" x="44" y="0">ira</tspan><tspan fill="#548235" font-size="27" x="-169.58" y="46">V</tspan><tspan fill="#FFFFFF" font-size="24" x="-154.913" y="46">egan</tspan><tspan fill="#FFFFFF" font-size="27" x="-89.08" y="46">I</tspan><tspan fill="#FFFFFF" font-size="24" x="-74.4133" y="46">nformation</tspan><tspan fill="#FFFFFF" font-size="27" x="70.42" y="46">R</tspan><tspan fill="#FFFFFF" font-size="24" x="85.0867" y="46">etrieval</tspan><tspan fill="#FFFFFF" font-size="27" x="203.587" y="46">A</tspan><tspan fill="#FFFFFF" font-size="24" x="218.253" y="46">ssistant</tspan><tspan fill="#548235" x="-12.8053" y="10">V</tspan></text><path d="M538.5 355C538.5 335.946 553.946 320.5 573 320.5 592.054 320.5 607.5 335.946 607.5 355 607.5 374.054 592.054 389.5 573 389.5 553.946 389.5 538.5 374.054 538.5 355Z" stroke="#548235" stroke-miterlimit="8" fill="none" fill-rule="evenodd"/></g></svg>